<?xml version="1.0" encoding="UTF-8"?> <svg xmlns="http://www.w3.org/2000/svg" width="43.805" height="43.805" viewBox="0 0 43.805 43.805"><defs><style>.a{fill:#f42c37;}</style></defs><g transform="translate(-16.488 -16.488)"><g transform="translate(16.488 16.488)"><path class="a" d="M32.188,55.422a18.33,18.33,0,0,0,25.853,0l.546-.546a2.853,2.853,0,0,0,0-4.031l-6.808-6.808a2.85,2.85,0,0,0-4.031,0l-3.013,3.013a1.832,1.832,0,0,1-2.516,0L30.194,35.025a1.781,1.781,0,0,1,0-2.516L33.206,29.5a2.854,2.854,0,0,0,0-4.031L26.4,18.658a2.853,2.853,0,0,0-4.031,0l-.545.545a18.33,18.33,0,0,0,0,25.853Zm-8.517-34.37.545-.545a.237.237,0,0,1,.334,0l6.808,6.808a.237.237,0,0,1,0,.334L28.345,30.66a4.4,4.4,0,0,0,0,6.213L40.371,48.9a4.4,4.4,0,0,0,6.213,0L49.6,45.887a.237.237,0,0,1,.334,0l6.808,6.808a.237.237,0,0,1,0,.334l-.546.546a15.717,15.717,0,0,1-22.156,0L23.671,43.208a15.716,15.716,0,0,1,0-22.156Z" transform="translate(-16.488 -16.951)"></path><path class="a" d="M64.9,40.531a1.308,1.308,0,0,0,1.27-1.619A18.622,18.622,0,0,0,53.493,26.238a1.307,1.307,0,0,0-.624,2.539A16.029,16.029,0,0,1,63.627,39.535,1.308,1.308,0,0,0,64.9,40.531Z" transform="translate(-28.747 -19.853)"></path><path class="a" d="M51.108,35.949a1.307,1.307,0,1,0-.624,2.539,9.6<?xml version="1.0" encoding="UTF-8"?> <svg xmlns="http://www.w3.org/2000/svg" width="43.805" height="43.805" viewBox="0 0 43.805 43.805"><defs><style>.a{fill:#f42c37;}</style></defs><g transform="translate(-16.488 -16.488)"><g transform="translate(16.488 16.488)"><path class="a" d="M32.188,55.422a18.33,18.33,0,0,0,25.853,0l.546-.546a2.853,2.853,0,0,0,0-4.031l-6.808-6.808a2.85,2.85,0,0,0-4.031,0l-3.013,3.013a1.832,1.832,0,0,1-2.516,0L30.194,35.025a1.781,1.781,0,0,1,0-2.516L33.206,29.5a2.854,2.854,0,0,0,0-4.031L26.4,18.658a2.853,2.853,0,0,0-4.031,0l-.545.545a18.33,18.33,0,0,0,0,25.853Zm-8.517-34.37.545-.545a.237.237,0,0,1,.334,0l6.808,6.808a.237.237,0,0,1,0,.334L28.345,30.66a4.4,4.4,0,0,0,0,6.213L40.371,48.9a4.4,4.4,0,0,0,6.213,0L49.6,45.887a.237.237,0,0,1,.334,0l6.808,6.808a.237.237,0,0,1,0,.334l-.546.546a15.717,15.717,0,0,1-22.156,0L23.671,43.208a15.716,15.716,0,0,1,0-22.156Z" transform="translate(-16.488 -16.951)"></path><path class="a" d="M64.9,40.531a1.308,1.308,0,0,0,1.27-1.619A18.622,18.622,0,0,0,53.493,26.238a1.307,1.307,0,0,0-.624,2.539A16.029,16.029,0,0,1,63.627,39.535,1.308,1.308,0,0,0,64.9,40.531Z" transform="translate(-28.747 -19.853)"></path><path class="a" d="M51.108,35.949a1.307,1.307,0,1,0-.624,2.539,9.628,9.628,0,0,1,5.97,5.97,1.307,1.307,0,1,0,2.539-.624,12.168,12.168,0,0,0-7.886-7.886Z" transform="translate(-27.92 -23.217)"></path><path class="a" d="M55.879,16.526a1.307,1.307,0,0,0-.624,2.539A22.518,22.518,0,0,1,70.8,34.612a1.307,1.307,0,1,0,2.539-.624A25.125,25.125,0,0,0,55.879,16.526Z" transform="translate(-29.573 -16.488)"></path></g></g></svg> 